<svg width="15" height="15" viewBox="0 0 15 15" fill="none" xmlns="http://www.w3.org/2000/svg">
<path fill-rule="evenodd" clip-rule="evenodd" d="M5.73162 1.73447C6.54077 1.51671 7.38827 1.48195 8.21253 1.63272C9.03679 1.78349 9.81711 2.11601 10.4968 2.6061L9.86979 3.23309C9.79808 3.30502 9.7493 3.39659 9.72959 3.49623C9.70989 3.59587 9.72015 3.69911 9.75909 3.79292C9.79802 3.88673 9.86387 3.9669 9.94834 4.02331C10.0328 4.07972 10.1321 4.10984 10.2337 4.10986H12.5905C12.7268 4.10986 12.8576 4.05571 12.9539 3.95933C13.0503 3.86295 13.1045 3.73223 13.1045 3.59593V1.23904C13.1045 1.13735 13.0743 1.03795 13.0177 0.95342C12.9612 0.868893 12.8808 0.803039 12.7869 0.764192C12.6929 0.725346 12.5895 0.715253 12.4898 0.735192C12.3901 0.755131 12.2985 0.804205 12.2267 0.876203L11.5976 1.50526C10.4443 0.612464 9.04682 0.0913246 7.59051 0.010938C6.13421 -0.0694486 4.68787 0.294715 3.44328 1.05514C2.19868 1.81557 1.21461 2.93634 0.621561 4.26884C0.0285096 5.60135 -0.145512 7.08264 0.12257 8.51631C0.141265 8.61585 0.179385 8.71075 0.234752 8.79556C0.290119 8.88038 0.36165 8.95346 0.445261 9.01063C0.528871 9.0678 0.622924 9.10795 0.722049 9.12877C0.821174 9.1496 0.92343 9.15069 1.02298 9.132C1.12253 9.1133 1.21742 9.07518 1.30223 9.01982C1.38705 8.96445 1.46013 8.89292 1.5173 8.80931C1.57448 8.7257 1.61462 8.63164 1.63544 8.53252C1.65627 8.43339 1.65736 8.33114 1.63867 8.23159C1.37734 6.83222 1.65368 5.38577 2.41246 4.18129C3.17124 2.9768 4.35658 2.10299 5.73162 1.73447ZM14.266 5.87059C14.2282 5.66954 14.1121 5.49173 13.9433 5.37626C13.7744 5.2608 13.5666 5.21714 13.3656 5.2549C13.1645 5.29265 12.9867 5.40873 12.8712 5.57759C12.7558 5.74645 12.7121 5.95426 12.7499 6.15531C12.9572 7.26518 12.8275 8.41173 12.3773 9.44717C11.927 10.4826 11.177 11.3595 10.2239 11.9648C9.2708 12.5701 8.15824 12.876 7.02964 12.8433C5.90103 12.8105 4.80811 12.4404 3.89174 11.7808L4.51874 11.1538C4.59051 11.0818 4.63931 10.9901 4.65899 10.8904C4.67866 10.7907 4.66831 10.6873 4.62925 10.5935C4.59019 10.4996 4.52417 10.4195 4.43955 10.3632C4.35493 10.3068 4.2555 10.2769 4.15385 10.277H1.79799C1.66168 10.277 1.53096 10.3312 1.43458 10.4276C1.3382 10.5239 1.28406 10.6547 1.28406 10.791V13.1479C1.28408 13.2495 1.31427 13.3489 1.3708 13.4335C1.42734 13.518 1.50768 13.5839 1.60166 13.6227C1.69564 13.6615 1.79904 13.6716 1.89875 13.6517C1.99847 13.6318 2.09003 13.5827 2.16185 13.5107L2.7909 12.8816C3.94418 13.7743 5.34153 14.2954 6.7977 14.3758C8.25387 14.4562 9.70009 14.0921 10.9446 13.3318C12.1892 12.5715 13.1732 11.451 13.7664 10.1187C14.3596 8.78633 14.5338 7.3052 14.266 5.87162V5.87059Z" fill="#8FBFFA"/>
</svg>
