<svg width="51" height="12" viewBox="0 0 51 12" fill="none" xmlns="http://www.w3.org/2000/svg">
<path d="M6.52779 1.82388H6.46779L5.75979 3.22788L3.75579 6.87588L1.75179 3.22788L1.04379 1.82388H0.983789V8.87988H-0.000210911V0.503883H1.34379L3.74379 5.01588H3.80379L6.21579 0.503883H7.51179V8.87988H6.52779V1.82388ZM11.9701 9.02388C11.5461 9.02388 11.1621 8.94788 10.8181 8.79588C10.4821 8.64388 10.1901 8.42788 9.94207 8.14788C9.70207 7.85988 9.51407 7.51988 9.37807 7.12788C9.25007 6.72788 9.18607 6.27988 9.18607 5.78388C9.18607 5.29588 9.25007 4.85188 9.37807 4.45188C9.51407 4.05188 9.70207 3.71188 9.94207 3.43188C10.1901 3.14388 10.4821 2.92388 10.8181 2.77188C11.1621 2.61988 11.5461 2.54388 11.9701 2.54388C12.3861 2.54388 12.7581 2.61988 13.0861 2.77188C13.4141 2.92388 13.6941 3.13588 13.9261 3.40788C14.1581 3.67188 14.3341 3.98788 14.4541 4.35588C14.5821 4.72388 14.6461 5.12788 14.6461 5.56788V6.02388H10.1941V6.31188C10.1941 6.57588 10.2341 6.82388 10.3141 7.05588C10.4021 7.27988 10.5221 7.47588 10.6741 7.64388C10.8341 7.81188 11.0261 7.94388 11.2501 8.03988C11.4821 8.13588 11.7421 8.18388 12.0301 8.18388C12.4221 8.18388 12.7621 8.09188 13.0501 7.90788C13.3461 7.72388 13.5741 7.45988 13.7341 7.11588L14.4181 7.60788C14.2181 8.03188 13.9061 8.37588 13.4821 8.63988C13.0581 8.89588 12.5541 9.02388 11.9701 9.02388ZM11.9701 3.34788C11.7061 3.34788 11.4661 3.39588 11.2501 3.49188C11.0341 3.57988 10.8461 3.70788 10.6861 3.87588C10.5341 4.04388 10.4141 4.24388 10.3261 4.47588C10.2381 4.69988 10.1941 4.94788 10.1941 5.21988V5.30388H13.6141V5.17188C13.6141 4.61988 13.4621 4.17988 13.1581 3.85188C12.8621 3.51588 12.4661 3.34788 11.9701 3.34788ZM20.188 7.87188H20.14C19.764 8.63988 19.16 9.02388 18.328 9.02388C17.944 9.02388 17.596 8.94788 17.284 8.79588C16.972 8.64388 16.704 8.42788 16.48 8.14788C16.264 7.86788 16.096 7.52788 15.976 7.12788C15.864 6.72788 15.808 6.27988 15.808 5.78388C15.808 5.28788 15.864 4.83988 15.976 4.43988C16.096 4.03988 16.264 3.69988 16.48 3.41988C16.704 3.13988 16.972 2.92388 17.284 2.77188C17.596 2.61988 17.944 2.54388 18.328 2.54388C18.76 2.54388 19.128 2.63988 19.432 2.83188C19.744 3.01588 19.98 3.30388 20.14 3.69588H20.188V-0.000117302H21.148V8.87988H20.188V7.87188ZM18.592 8.15988C18.808 8.15988 19.012 8.13188 19.204 8.07588C19.404 8.01988 19.576 7.93988 19.72 7.83588C19.864 7.72388 19.976 7.59188 20.056 7.43988C20.144 7.27988 20.188 7.09988 20.188 6.89988V4.59588C20.188 4.42788 20.144 4.27188 20.056 4.12788C19.976 3.97588 19.864 3.84788 19.72 3.74388C19.576 3.63988 19.404 3.55988 19.204 3.50388C19.012 3.43988 18.808 3.40788 18.592 3.40788C18.048 3.40788 17.62 3.57988 17.308 3.92388C16.996 4.25988 16.84 4.70388 16.84 5.25588V6.31188C16.84 6.86388 16.996 7.31188 17.308 7.65588C17.62 7.99188 18.048 8.15988 18.592 8.15988ZM23.6689 1.23588C23.4609 1.23588 23.3089 1.18788 23.2129 1.09188C23.1249 0.987882 23.0809 0.855882 23.0809 0.695882V0.539882C23.0809 0.379882 23.1249 0.251882 23.2129 0.155882C23.3089 0.0518825 23.4609 -0.000117302 23.6689 -0.000117302C23.8769 -0.000117302 24.0249 0.0518825 24.1129 0.155882C24.2089 0.251882 24.2569 0.379882 24.2569 0.539882V0.695882C24.2569 0.855882 24.2089 0.987882 24.1129 1.09188C24.0249 1.18788 23.8769 1.23588 23.6689 1.23588ZM23.1889 2.68788H24.1489V8.87988H23.1889V2.68788ZM28.6369 9.02388C27.9569 9.02388 27.3769 8.89588 26.8969 8.63988C26.4169 8.37588 26.0089 8.01588 25.6729 7.55988L26.4169 6.93588C26.7129 7.32788 27.0409 7.62788 27.4009 7.83588C27.7609 8.03588 28.1849 8.13588 28.6729 8.13588C29.2729 8.13588 29.7289 7.99188 30.0409 7.70388C30.3609 7.41588 30.5209 7.03188 30.5209 6.55188C30.5209 6.15188 30.4009 5.84388 30.1609 5.62788C29.9209 5.41188 29.5249 5.23988 28.9729 5.11188L28.2889 4.95588C27.5209 4.77988 26.9329 4.51588 26.5249 4.16388C26.1249 3.80388 25.9249 3.29988 25.9249 2.65188C25.9249 2.28388 25.9929 1.95588 26.1289 1.66788C26.2649 1.37988 26.4529 1.13988 26.6929 0.947883C26.9409 0.755882 27.2329 0.611882 27.5689 0.515882C27.9129 0.411882 28.2889 0.359882 28.6969 0.359882C29.3289 0.359882 29.8689 0.475882 30.3169 0.707882C30.7729 0.939883 31.1569 1.27988 31.4689 1.72788L30.7129 2.27988C30.4809 1.95988 30.2009 1.70788 29.8729 1.52388C29.5449 1.33988 29.1369 1.24788 28.6489 1.24788C28.1129 1.24788 27.6889 1.36388 27.3769 1.59588C27.0729 1.81988 26.9209 2.15988 26.9209 2.61588C26.9209 3.01588 27.0489 3.31988 27.3049 3.52788C27.5689 3.72788 27.9649 3.88788 28.4929 4.00788L29.1769 4.16388C30.0009 4.34788 30.5969 4.62788 30.9649 5.00388C31.3329 5.37988 31.5169 5.87988 31.5169 6.50388C31.5169 6.88788 31.4489 7.23588 31.3129 7.54788C31.1849 7.85988 30.9969 8.12388 30.7489 8.33988C30.5009 8.55588 30.1969 8.72388 29.8369 8.84388C29.4849 8.96388 29.0849 9.02388 28.6369 9.02388ZM36.9776 2.68788H37.9256L35.1536 10.3199C35.0816 10.5039 35.0096 10.6559 34.9376 10.7759C34.8656 10.9039 34.7776 11.0039 34.6736 11.0759C34.5696 11.1479 34.4376 11.1999 34.2776 11.2319C34.1256 11.2639 33.9376 11.2799 33.7136 11.2799H33.2216V10.4399H34.1936L34.6616 9.11988L32.3456 2.68788H33.3056L34.7936 6.89988L35.0816 7.90788H35.1416L35.4776 6.89988L36.9776 2.68788ZM39.1499 8.87988V2.68788H40.1099V3.69588H40.1579C40.3099 3.34388 40.5219 3.06388 40.7939 2.85588C41.0739 2.64788 41.4459 2.54388 41.9099 2.54388C42.5499 2.54388 43.0539 2.75188 43.4219 3.16788C43.7979 3.57588 43.9859 4.15588 43.9859 4.90788V8.87988H43.0259V5.07588C43.0259 3.96388 42.5579 3.40788 41.6219 3.40788C41.4299 3.40788 41.2419 3.43188 41.0579 3.47988C40.8819 3.52788 40.7219 3.59988 40.5779 3.69588C40.4339 3.79188 40.3179 3.91588 40.2299 4.06788C40.1499 4.21188 40.1099 4.38388 40.1099 4.58388V8.87988H39.1499ZM48.2742 9.02388C47.8422 9.02388 47.4542 8.94788 47.1102 8.79588C46.7662 8.64388 46.4742 8.42788 46.2342 8.14788C46.0022 7.86788 45.8222 7.52788 45.6942 7.12788C45.5742 6.72788 45.5142 6.27988 45.5142 5.78388C45.5142 5.28788 45.5742 4.83988 45.6942 4.43988C45.8222 4.03988 46.0022 3.69988 46.2342 3.41988C46.4742 3.13988 46.7662 2.92388 47.1102 2.77188C47.4542 2.61988 47.8422 2.54388 48.2742 2.54388C48.8902 2.54388 49.3822 2.67988 49.7502 2.95188C50.1262 3.21588 50.4062 3.56388 50.5902 3.99588L49.7862 4.40388C49.6742 4.08388 49.4902 3.83588 49.2342 3.65988C48.9782 3.48388 48.6582 3.39588 48.2742 3.39588C47.9862 3.39588 47.7342 3.44388 47.5182 3.53988C47.3022 3.62788 47.1222 3.75588 46.9782 3.92388C46.8342 4.08388 46.7262 4.27988 46.6542 4.51188C46.5822 4.73588 46.5462 4.98388 46.5462 5.25588V6.31188C46.5462 6.85588 46.6902 7.30388 46.9782 7.65588C47.2742 7.99988 47.7062 8.17188 48.2742 8.17188C49.0502 8.17188 49.6102 7.81188 49.9542 7.09188L50.6502 7.55988C50.4502 8.00788 50.1502 8.36388 49.7502 8.62788C49.3582 8.89188 48.8662 9.02388 48.2742 9.02388Z" fill="black"/>
</svg>
